<?xml version="1.0" encoding="UTF-8" standalone="no"?>
<svg
   height="48"
   width="48"
   version="1.1"
   id="svg4"
   sodipodi:docname="INDV.svg"
   xml:space="preserve"
   inkscape:version="1.4 (86a8ad7, 2024-10-11)"
   inkscape:export-batch-path="Export"
   inkscape:export-batch-name="TabSheetHeatsImages"
   xmlns:inkscape="http://www.inkscape.org/namespaces/inkscape"
   xmlns:sodipodi="http://sodipodi.sourceforge.net/DTD/sodipodi-0.dtd"
   xmlns="http://www.w3.org/2000/svg"
   xmlns:svg="http://www.w3.org/2000/svg"><defs
     id="defs8" /><sodipodi:namedview
     id="namedview6"
     pagecolor="#ffffff"
     bordercolor="#666666"
     borderopacity="1.0"
     inkscape:showpageshadow="2"
     inkscape:pageopacity="0.0"
     inkscape:pagecheckerboard="0"
     inkscape:deskcolor="#d1d1d1"
     showgrid="false"
     inkscape:zoom="5.6568542"
     inkscape:cx="-76.367533"
     inkscape:cy="54.270446"
     inkscape:window-width="2560"
     inkscape:window-height="1377"
     inkscape:window-x="-8"
     inkscape:window-y="-8"
     inkscape:window-maximized="1"
     inkscape:current-layer="layer1"
     showguides="true"><inkscape:page
       x="0"
       y="0"
       width="48"
       height="48"
       id="page535"
       inkscape:label="EmptyFrame"
       inkscape:export-filename="..\HeatNavigator\EmptyFrame.png"
       inkscape:export-xdpi="96"
       inkscape:export-ydpi="96"
       margin="0"
       bleed="0" /></sodipodi:namedview><path
     d="M 18.978968,24.781239 8.325662,24.763197 V 3.0400312 L 18.978968,3.1482855 Z M 33.986509,24.672985 H 30.878846 L 19.745569,11.686778 c -0.281601,-0.325696 -0.512915,-0.666542 -0.693944,-1.022536 h -0.09051 c 0.08046,0.34842 0.122533,1.094493 0.120686,2.238218 l -0.01914,11.853451 -2.515274,-0.08293 V 8.3805786 l 6.044339,-2e-7 12.898297,12.7816996 c 0.651256,0.530204 -4.078151,0.893773 -3.947408,1.090705 h 0.06034 C 31.502389,21.783374 31.452104,20.984281 31.452104,19.855705 V 8.3805786 h 2.534405 z m 2.208175,0 V 8.3827675 h 7.162662 c 11.769793,0 10.895796,2.6148215 13.710348,7.9210115 1.316393,2.481755 -1.272156,4.547079 -3.816468,6.080484 -2.532255,1.525815 -5.926682,2.288722 -10.183281,2.288722 z M 39.233389,10.075268 V 22.94221 h 3.870732 c 3.400455,0 6.047264,-0.573129 7.940425,-1.719387 1.893163,-1.146259 2.839743,-2.770759 2.839743,-4.873496 0,-4.182706 -3.533097,-6.274059 -10.599293,-6.274059 z M 76.648987,8.4166634 64.545901,24.672985 58.326534,24.654943 52.400352,16.526782 46.474171,8.398621 52.739125,8.4166634 61.787949,21.30609 c 0.288711,0.415666 0.509044,0.895572 0.660996,1.439716 l 0.09117,0 c 0.06564,-0.453454 0.372286,-0.940917 0.75217,-1.462389 L 67.93071,8.4166634 Z"
     id="text1"
     style="font-size:30.8956px;line-height:1.25;font-family:'Segoe UI';-inkscape-font-specification:'Segoe UI, Normal';text-align:center;text-anchor:middle;fill:#000000;fill-opacity:1;stroke:#000000;stroke-width:2.593;stroke-opacity:1"
     transform="scale(0.57735647,1.7320322)"
     aria-label="INDV"
     sodipodi:nodetypes="ccccccccccscccccccscccccsscscccssssccccccccccccc" /><g
     inkscape:groupmode="layer"
     id="layer1"
     inkscape:label="Layer 1" /></svg>
