<?xml version="1.0" encoding="UTF-8" standalone="no"?>
<!-- Created with Inkscape (http://www.inkscape.org/) -->

<svg
   width="23mm"
   height="23mm"
   viewBox="0 0 23 23"
   version="1.1"
   id="svg1"
   xml:space="preserve"
   inkscape:version="1.4 (86a8ad7, 2024-10-11)"
   sodipodi:docname="INDV_RELAY.svg"
   xmlns:inkscape="http://www.inkscape.org/namespaces/inkscape"
   xmlns:sodipodi="http://sodipodi.sourceforge.net/DTD/sodipodi-0.dtd"
   xmlns="http://www.w3.org/2000/svg"
   xmlns:svg="http://www.w3.org/2000/svg"><sodipodi:namedview
     id="namedview1"
     pagecolor="#ffffff"
     bordercolor="#666666"
     borderopacity="1.0"
     inkscape:showpageshadow="2"
     inkscape:pageopacity="0.0"
     inkscape:pagecheckerboard="0"
     inkscape:deskcolor="#d1d1d1"
     inkscape:document-units="mm"
     inkscape:zoom="5.8658912"
     inkscape:cx="56.257436"
     inkscape:cy="63.758428"
     inkscape:window-width="2560"
     inkscape:window-height="1377"
     inkscape:window-x="-8"
     inkscape:window-y="-8"
     inkscape:window-maximized="1"
     inkscape:current-layer="layer1" /><defs
     id="defs1" /><g
     inkscape:label="Layer 1"
     inkscape:groupmode="layer"
     id="layer1"
     transform="translate(6.7834867,10.117303)"><g
       id="g1"
       transform="matrix(0.26458333,0,0,0.26458333,-6.1926436,-9.801735)"><g
         id="layer1-0"
         inkscape:label="Layer 1"
         transform="translate(82.201164,-10.960155)" /><path
         d="M 5.3447453,44.049642 H 3.194386 V 3.9660138 h 2.1503593 z m 19.6220287,0 h -2.63675 l -9.44622,-31.949504 q -0.358394,-1.20195 -0.58879,-2.5157079 h -0.0768 q 0.102395,1.2858079 0.102395,5.5066069 V 44.049642 H 10.170254 V 3.9660138 h 2.790347 l 9.190227,31.4463592 q 0.57599,1.956663 0.742387,2.683423 h 0.0512 Q 22.816418,36.362751 22.816418,32.197857 V 3.9660138 h 2.150359 z m 4.812708,0 V 3.9660138 h 5.068705 q 9.702218,0 9.702218,19.5386722 0,9.280169 -2.700751,14.926539 -2.687948,5.618417 -7.206263,5.618417 z M 31.929841,8.2147664 V 39.800887 h 2.73915 q 3.609531,0 5.619093,-4.2208 2.009563,-4.220801 2.009563,-11.963591 0,-15.4017296 -7.50066,-15.4017296 z"
         id="text1"
         style="font-size:40.6354px;line-height:1.25;font-family:'Segoe UI';-inkscape-font-specification:'Segoe UI, Normal';text-align:center;text-anchor:middle;stroke:#000000;stroke-width:2.83266"
         aria-label="IND" /></g><g
       id="layer36"
       inkscape:label="STROKES UPDATED 1"
       transform="matrix(0.26458333,0,0,0.26458333,-183.46042,-29.14562)"><circle
         style="display:inline;opacity:0.6;fill:#ff7f2a;fill-opacity:1;stroke-width:8.65996;stroke-miterlimit:0;stroke-dashoffset:0.8406;paint-order:markers stroke fill"
         id="path6-89"
         cx="725.65179"
         cy="131.37793"
         r="24"
         inkscape:label="Circle-RELAY" /><path
         d="m 756.93751,146.19522 h -9.06404 l -5.44821,-9.01518 q -0.61078,-1.02612 -1.1727,-1.83236 -0.56192,-0.80624 -1.14828,-1.36816 -0.56192,-0.58635 -1.19714,-0.87953 -0.61078,-0.31761 -1.34372,-0.31761 h -2.12554 v 13.41284 h -7.89134 V 111.1606 h 12.50888 q 12.75319,0 12.75319,9.52824 0,1.83236 -0.56192,3.39597 -0.56193,1.53918 -1.58805,2.78518 -1.02611,1.246 -2.492,2.14996 -1.44145,0.90396 -3.22494,1.41702 v 0.0977 q 0.7818,0.24431 1.51474,0.80623 0.73295,0.53749 1.41703,1.27043 0.68407,0.73295 1.29486,1.58805 0.63522,0.83066 1.14828,1.6369 z M 735.43788,117.073 v 9.74812 h 3.4204 q 2.54087,0 4.08004,-1.46588 1.56361,-1.49032 1.56361,-3.68914 0,-4.5931 -5.49706,-4.5931 z"
         id="text6"
         style="font-weight:bold;font-size:50.0355px;line-height:1.25;font-family:'Segoe UI';-inkscape-font-specification:'Segoe UI Bold';fill:#5c1c06;stroke-width:0.938167"
         transform="scale(0.98084826,1.0195257)"
         aria-label="R"
         inkscape:label="LetterR" /></g></g></svg>
