<?xml version="1.0" encoding="UTF-8" standalone="no"?>
<svg
   height="48"
   width="48"
   version="1.1"
   id="svg4"
   sodipodi:docname="INDV.svg"
   xml:space="preserve"
   inkscape:version="1.4 (86a8ad7, 2024-10-11)"
   inkscape:export-batch-path="Export"
   inkscape:export-batch-name="TabSheetHeatsImages"
   xmlns:inkscape="http://www.inkscape.org/namespaces/inkscape"
   xmlns:sodipodi="http://sodipodi.sourceforge.net/DTD/sodipodi-0.dtd"
   xmlns="http://www.w3.org/2000/svg"
   xmlns:svg="http://www.w3.org/2000/svg"><defs
     id="defs8" /><sodipodi:namedview
     id="namedview6"
     pagecolor="#ffffff"
     bordercolor="#666666"
     borderopacity="1.0"
     inkscape:showpageshadow="2"
     inkscape:pageopacity="0.0"
     inkscape:pagecheckerboard="0"
     inkscape:deskcolor="#d1d1d1"
     showgrid="false"
     inkscape:zoom="7.9999999"
     inkscape:cx="28.1875"
     inkscape:cy="11.125"
     inkscape:window-width="2560"
     inkscape:window-height="1377"
     inkscape:window-x="-8"
     inkscape:window-y="-8"
     inkscape:window-maximized="1"
     inkscape:current-layer="svg4"
     showguides="true"><inkscape:page
       x="0"
       y="0"
       width="48"
       height="48"
       id="page535"
       inkscape:label="EmptyFrame"
       inkscape:export-filename="..\HeatNavigator\EmptyFrame.png"
       inkscape:export-xdpi="96"
       inkscape:export-ydpi="96"
       margin="0"
       bleed="0" /></sodipodi:namedview><path
     d="M 9.9415178,24.672985 H 7.4071132 V 3.0400312 h 2.5344046 z m 23.1264422,0 H 29.960297 L 18.82702,7.4299821 Q 18.404619,6.7812952 18.133076,6.0722653 h -0.09051 q 0.120686,0.6939442 0.120686,2.9718912 V 24.672985 H 15.628842 V 3.0400312 h 3.288692 L 29.749097,20.011491 q 0.678858,1.056002 0.874973,1.448231 h 0.06034 Q 30.533555,20.524406 30.533555,18.276631 V 3.0400312 h 2.534405 z m 5.672239,0 V 3.0400312 h 5.973954 q 11.434992,0 11.434992,10.5449338 0,5.008466 -3.183091,8.055786 -3.168006,3.032234 -8.493273,3.032234 z M 41.274604,5.333064 v 17.046888 h 3.228349 q 4.254179,0 6.62264,-2.277947 2.368462,-2.277947 2.368462,-6.456697 0,-8.312244 -8.840245,-8.312244 z M 75.730438,3.0400312 67.719909,24.672985 H 64.929047 L 57.084461,3.0400312 h 2.821034 l 5.98904,17.1524888 q 0.286629,0.829716 0.437486,1.915889 h 0.06034 q 0.120686,-0.905145 0.49783,-1.946061 L 72.999919,3.0400312 Z"
     id="text1"
     style="font-size:30.8956px;line-height:1.25;font-family:'Segoe UI';-inkscape-font-specification:'Segoe UI, Normal';text-align:center;text-anchor:middle;stroke:#000000;stroke-width:2.593"
     transform="scale(0.57735647,1.7320322)"
     aria-label="INDV" /></svg>
